# xmcd CD database file
#
# Track frame offsets:
#	150
#	11564
#	23510
#	37961
#	48340
#	63469
#	76305
#	85268
#	93550
#	106066
#
# Disc length: 1698 seconds
#
# Revision: 0
# Processed by: cddbd v1.5.2PL0 Copyright (c) Steve Scherf et al.
# Submitted via: CDex 1.51
#
DISCID=6a06a00a
DTITLE=The Downbeat 5 - Victory Motel
DYEAR=2004
DGENRE=Alternative Rock
TTITLE0=Make Your Mark
TTITLE1=Outcast
TTITLE2=Laughin' Out Loud
TTITLE3=Out In The Streets
TTITLE4=Running In Place
TTITLE5=Army Of One
TTITLE6=Dum Dum Ditty
TTITLE7=Lonesome Town
TTITLE8=Climbin' The Walls
TTITLE9=Lie Again
EXTD=YEAR: 2004
EXTT0=
EXTT1=
EXTT2=
EXTT3=
EXTT4=
EXTT5=
EXTT6=
EXTT7=
EXTT8=
EXTT9=
PLAYORDER=
